<svg width="499" height="482" viewBox="0 0 499 482" fill="none" xmlns="http://www.w3.org/2000/svg">
<path d="M829 189C829 350.819 697.819 482 536 482C374.181 482 243 350.819 243 189C243 27.1806 374.181 -104 536 -104C697.819 -104 829 27.1806 829 189ZM246.03 189C246.03 349.146 375.854 478.97 536 478.97C696.146 478.97 825.97 349.146 825.97 189C825.97 28.854 696.146 -100.97 536 -100.97C375.854 -100.97 246.03 28.854 246.03 189Z" fill="url(#paint0_linear_211_7)"/>
<path d="M586 189C586 350.819 454.819 482 293 482C131.181 482 0 350.819 0 189C0 27.1806 131.181 -104 293 -104C454.819 -104 586 27.1806 586 189ZM3.03006 189C3.03006 349.146 132.854 478.97 293 478.97C453.146 478.97 582.97 349.146 582.97 189C582.97 28.854 453.146 -100.97 293 -100.97C132.854 -100.97 3.03006 28.854 3.03006 189Z" fill="url(#paint1_linear_211_7)"/>
<path d="M708 -176C708 -14.1806 576.819 117 415 117C253.181 117 122 -14.1806 122 -176C122 -337.819 253.181 -469 415 -469C576.819 -469 708 -337.819 708 -176ZM125.03 -176C125.03 -15.854 254.854 113.97 415 113.97C575.146 113.97 704.97 -15.854 704.97 -176C704.97 -336.146 575.146 -465.97 415 -465.97C254.854 -465.97 125.03 -336.146 125.03 -176Z" fill="url(#paint2_linear_211_7)"/>
<defs>
<linearGradient id="paint0_linear_211_7" x1="536" y1="-104" x2="536" y2="482" gradientUnits="userSpaceOnUse">
<stop stop-color="#027CFC"/>
<stop offset="1" stop-color="#027CFC" stop-opacity="0"/>
</linearGradient>
<linearGradient id="paint1_linear_211_7" x1="293" y1="-104" x2="293" y2="482" gradientUnits="userSpaceOnUse">
<stop stop-color="#027CFC"/>
<stop offset="1" stop-color="#027CFC" stop-opacity="0"/>
</linearGradient>
<linearGradient id="paint2_linear_211_7" x1="415" y1="-469" x2="415" y2="117" gradientUnits="userSpaceOnUse">
<stop stop-color="#027CFC"/>
<stop offset="1" stop-color="#027CFC" stop-opacity="0"/>
</linearGradient>
</defs>
</svg>
