<svg width="115" height="48" viewBox="0 0 115 48" fill="none" xmlns="http://www.w3.org/2000/svg">
<g id="turing-logo-color">
<g id="Group">
<path id="Vector" d="M13.2415 2.78857V5.8852H9.04119V18.6481H5.18075V5.8852H0.980469V2.78857H13.2415Z" fill="white"/>
<path id="Vector_2" d="M27.624 6.0437V18.6514H23.7636V16.9347C23.3709 17.4926 22.8397 17.9416 22.1732 18.2784C21.5034 18.6184 20.761 18.7868 19.9493 18.7868C18.9859 18.7868 18.1346 18.5722 17.3988 18.143C16.6597 17.7138 16.0889 17.0932 15.683 16.2778C15.2772 15.4656 15.0726 14.5083 15.0726 13.4089V6.0437H18.91V12.8906C18.91 13.7358 19.1277 14.3894 19.5633 14.8549C19.9988 15.3204 20.5861 15.5548 21.3252 15.5548C22.0643 15.5548 22.6714 15.3204 23.1103 14.8549C23.5458 14.3894 23.7636 13.7325 23.7636 12.8906V6.0437H27.624Z" fill="white"/>
<path id="Vector_3" d="M35.9553 6.50574C36.6317 6.10628 37.384 5.9082 38.2122 5.9082V9.99853H37.1497C36.1863 9.99853 35.4637 10.2065 34.9819 10.6192C34.5002 11.0351 34.2594 11.7614 34.2594 12.798V18.648H30.3989V6.04026H34.2594V8.13989C34.7114 7.44661 35.2756 6.9019 35.952 6.50244L35.9553 6.50574Z" fill="white"/>
<path id="Vector_4" d="M40.3469 4.13551C39.918 3.73605 39.7035 3.24415 39.7035 2.65652C39.7035 2.06889 39.918 1.55388 40.3469 1.15442C40.7758 0.754965 41.3301 0.556885 42.0065 0.556885C42.6829 0.556885 43.2142 0.758267 43.6431 1.15442C44.072 1.55388 44.2865 2.05568 44.2865 2.65652C44.2865 3.25736 44.072 3.73605 43.6431 4.13551C43.2142 4.53497 42.6698 4.73305 42.0065 4.73305C41.3433 4.73305 40.7758 4.53497 40.3469 4.13551ZM43.9269 6.04367V18.6514H40.0664V6.04367H43.9269Z" fill="white"/>
<path id="Vector_5" d="M57.9366 7.3411C58.8176 8.29848 59.2564 9.6124 59.2564 11.2829V18.6481H55.4191V11.8012C55.4191 10.9593 55.2013 10.3024 54.7658 9.83689C54.3302 9.3714 53.7429 9.13701 53.0038 9.13701C52.2647 9.13701 51.6807 9.3714 51.2419 9.83689C50.8064 10.3024 50.5886 10.9593 50.5886 11.8012V18.6481H46.7281V6.04038H50.5886V7.71084C50.9812 7.15292 51.5059 6.71385 52.1691 6.39032C52.8323 6.06679 53.5779 5.90503 54.4028 5.90503C55.8777 5.90503 57.0556 6.38372 57.9366 7.3411Z" fill="white"/>
<path id="Vector_6" d="M69.0692 6.40359C69.739 6.76343 70.2537 7.23882 70.6167 7.82646V6.04045H74.4771V18.625C74.4771 19.7838 74.2461 20.8336 73.7875 21.7778C73.3289 22.7187 72.6294 23.4681 71.689 24.026C70.7486 24.5839 69.5773 24.8612 68.1783 24.8612C66.3108 24.8612 64.7996 24.4221 63.6382 23.5407C62.4801 22.6592 61.8169 21.4642 61.6519 19.9588H65.4661C65.5849 20.4408 65.872 20.8204 66.324 21.101C66.776 21.3783 67.3337 21.5203 67.9936 21.5203C68.792 21.5203 69.4288 21.2892 69.9007 20.8303C70.3758 20.3714 70.6134 19.6352 70.6134 18.6283V16.8423C70.2372 17.43 69.7192 17.9087 69.056 18.2784C68.3928 18.6482 67.6174 18.833 66.7298 18.833C65.6905 18.833 64.7501 18.5656 63.9088 18.0308C63.0641 17.496 62.4009 16.7367 61.9093 15.7496C61.4209 14.7625 61.1768 13.6236 61.1768 12.3261C61.1768 11.0287 61.4209 9.89308 61.9093 8.91589C62.3976 7.9387 63.0641 7.1827 63.9088 6.65779C64.7501 6.12958 65.6938 5.86548 66.7298 5.86548C67.6174 5.86548 68.3961 6.04705 69.0659 6.40689L69.0692 6.40359ZM69.8149 10.0647C69.2804 9.50682 68.6304 9.22952 67.8616 9.22952C67.0928 9.22952 66.4428 9.50352 65.9083 10.0548C65.3737 10.6062 65.1065 11.3622 65.1065 12.3261C65.1065 13.2901 65.3737 14.056 65.9083 14.6206C66.4428 15.1851 67.0928 15.469 67.8616 15.469C68.6304 15.469 69.2804 15.1917 69.8149 14.6338C70.3494 14.0758 70.6167 13.3165 70.6167 12.3526C70.6167 11.3886 70.3494 10.6293 69.8149 10.0713V10.0647Z" fill="white"/>
<path id="Vector_7" d="M11.7071 39.212H5.79112L4.84415 42.0148H0.802246L6.5368 26.1553H11.0077L16.7422 42.0148H12.6541L11.7071 39.212ZM10.714 36.2309L8.75078 30.4239L6.81067 36.2309H10.7173H10.714Z" fill="white"/>
<path id="Vector_8" d="M18.5141 32.2758C19.0486 31.2986 19.7943 30.5426 20.7511 30.0177C21.708 29.4894 22.8034 29.2253 24.0375 29.2253C25.6179 29.2253 26.9377 29.6413 28.0002 30.4666C29.0626 31.2953 29.7588 32.4639 30.0888 33.9693H25.9809C25.6344 33.0053 24.9646 32.5234 23.9715 32.5234C23.2654 32.5234 22.6978 32.7974 22.2788 33.3487C21.8565 33.9 21.6453 34.6857 21.6453 35.7091C21.6453 36.7325 21.8565 37.5215 22.2788 38.0696C22.7011 38.6209 23.2654 38.8949 23.9715 38.8949C24.9646 38.8949 25.6344 38.4129 25.9809 37.4489H30.0888C29.7588 38.9246 29.056 40.0834 27.9903 40.9285C26.9212 41.7736 25.6047 42.1929 24.0375 42.1929C22.8034 42.1929 21.708 41.9288 20.7511 41.4006C19.7943 40.8724 19.0486 40.1197 18.5141 39.1425C17.9795 38.1653 17.7123 37.0197 17.7123 35.7091C17.7123 34.3985 17.9795 33.2529 18.5141 32.2758Z" fill="white"/>
<path id="Vector_9" d="M32.1047 32.2757C32.593 31.2986 33.2595 30.5426 34.1042 30.0177C34.9456 29.4894 35.8892 29.2253 36.9253 29.2253C37.8129 29.2253 38.5915 29.4069 39.2613 29.7668C39.9311 30.1266 40.4459 30.602 40.8088 31.1896V29.4036H44.6692V42.0113H40.8088V40.2253C40.4327 40.8129 39.908 41.2883 39.2382 41.6482C38.5684 42.008 37.7898 42.1896 36.9022 42.1896C35.8793 42.1896 34.9456 41.9222 34.1009 41.3874C33.2562 40.8526 32.593 40.0933 32.1014 39.1062C31.6131 38.1191 31.3689 36.9801 31.3689 35.6827C31.3689 34.3853 31.6131 33.2496 32.1014 32.2724L32.1047 32.2757ZM40.007 33.4279C39.4725 32.87 38.8225 32.5927 38.0537 32.5927C37.2849 32.5927 36.6349 32.8667 36.1004 33.418C35.5659 33.9693 35.2986 34.7253 35.2986 35.6893C35.2986 36.6533 35.5659 37.4192 36.1004 37.9837C36.6349 38.5482 37.2849 38.8322 38.0537 38.8322C38.8225 38.8322 39.4725 38.5548 40.007 37.9969C40.5415 37.439 40.8088 36.6797 40.8088 35.7157C40.8088 34.7517 40.5415 33.9924 40.007 33.4345V33.4279Z" fill="white"/>
<path id="Vector_10" d="M47.4376 32.276C47.9259 31.2988 48.5924 30.5428 49.4371 30.0179C50.2785 29.4897 51.2221 29.2256 52.2582 29.2256C53.0863 29.2256 53.8419 29.3972 54.5282 29.7439C55.2145 30.0905 55.7523 30.556 56.1417 31.1436V25.2937H60.0021V42.0115H56.1417V40.2057C55.782 40.8099 55.264 41.2886 54.5942 41.6517C53.9244 42.0115 53.1457 42.1931 52.2582 42.1931C51.2188 42.1931 50.2785 41.9257 49.4371 41.3909C48.5924 40.8561 47.9292 40.0968 47.4376 39.1097C46.9492 38.1226 46.7051 36.9836 46.7051 35.6862C46.7051 34.3888 46.9492 33.2532 47.4376 32.276ZM55.3399 33.4281C54.8054 32.8702 54.1554 32.5929 53.3866 32.5929C52.6178 32.5929 51.9678 32.8669 51.4333 33.4182C50.8988 33.9695 50.6315 34.7255 50.6315 35.6895C50.6315 36.6535 50.8988 37.4194 51.4333 37.9839C51.9678 38.5485 52.6178 38.8324 53.3866 38.8324C54.1554 38.8324 54.8054 38.5551 55.3399 37.9971C55.8744 37.4392 56.1417 36.6799 56.1417 35.7159C56.1417 34.752 55.8744 33.9927 55.3399 33.4347V33.4281Z" fill="white"/>
<path id="Vector_11" d="M74.6124 36.6369H65.8753C65.9347 37.4193 66.1888 38.0202 66.6309 38.4328C67.0763 38.8488 67.6207 39.0535 68.2674 39.0535C69.2309 39.0535 69.9007 38.6474 70.2769 37.832H74.3848C74.1736 38.6606 73.7941 39.4067 73.2431 40.067C72.6921 40.7305 72.0058 41.2488 71.1776 41.6252C70.3494 42.0015 69.4223 42.1897 68.3994 42.1897C67.1654 42.1897 66.0667 41.9256 65.1032 41.3974C64.1398 40.8692 63.3875 40.1165 62.8463 39.1393C62.3052 38.1621 62.0347 37.0166 62.0347 35.7059C62.0347 34.3953 62.3019 33.2498 62.8364 32.2726C63.371 31.2954 64.12 30.5394 65.0834 30.0145C66.0469 29.4863 67.1522 29.2222 68.4027 29.2222C69.6532 29.2222 70.7058 29.4797 71.6528 29.9914C72.5997 30.5031 73.3421 31.2327 73.8766 32.1834C74.4111 33.1309 74.6784 34.2402 74.6784 35.5046C74.6784 35.8644 74.6553 36.2441 74.6091 36.6336L74.6124 36.6369ZM70.7289 34.4911C70.7289 33.8275 70.5045 33.3026 70.0525 32.9097C69.6005 32.5169 69.0362 32.3221 68.3598 32.3221C67.6834 32.3221 67.1654 32.5103 66.7233 32.8866C66.2778 33.263 66.004 33.7978 65.8984 34.4911H70.7289Z" fill="white"/>
<path id="Vector_12" d="M96.5245 30.6946C97.4517 31.6421 97.9136 32.9626 97.9136 34.6496V42.0148H94.0763V35.1679C94.0763 34.3557 93.8618 33.7252 93.4329 33.2828C93.0039 32.8404 92.4133 32.616 91.661 32.616C90.9087 32.616 90.3181 32.8371 89.8892 33.2828C89.4603 33.7285 89.2458 34.3557 89.2458 35.1679V42.0148H85.4085V35.1679C85.4085 34.3557 85.194 33.7252 84.765 33.2828C84.3361 32.8404 83.7455 32.616 82.9932 32.616C82.2409 32.616 81.6503 32.8371 81.2214 33.2828C80.7924 33.7285 80.578 34.3557 80.578 35.1679V42.0148H76.7175V29.4071H80.578V30.9884C80.9706 30.4602 81.482 30.0442 82.1122 29.7339C82.7457 29.4269 83.4584 29.2717 84.2569 29.2717C85.2039 29.2717 86.0519 29.4764 86.7975 29.8825C87.5432 30.2885 88.1273 30.8696 88.5463 31.6223C88.9818 30.929 89.5757 30.3645 90.3313 29.9287C91.0836 29.4929 91.9052 29.275 92.7928 29.275C94.3567 29.275 95.604 29.7504 96.5311 30.6979L96.5245 30.6946Z" fill="white"/>
<path id="Vector_13" d="M113.494 29.407L105.591 48H101.437L104.328 41.5855L99.2036 29.4103H103.516L106.43 37.2938L109.32 29.4103H113.497L113.494 29.407Z" fill="white"/>
</g>
</g>
</svg>
